#N canvas 791 7 649 674 12;
#X floatatom 7 234 6 0 0 1 - - - 24;
#X obj 15 517 phasor~;
#X obj 15 543 *~ 0.4;
#X obj 222 595 vcf~ 880 5;
#X obj 221 642 dac~;
#X obj 262 244 loadbang;
#X obj 12 146 hsl 600 30 20 20000 1 0 empty empty frequency -2 -10 0 12 #c7c6ff #000000 #000000 0 1;
#X obj 9 274 s freq;
#X obj 15 447 r freq;
#X obj 15 470 + 0;
#X floatatom 15 494 5 0 0 0 - - - 0;
#X obj 80 516 phasor~;
#X obj 80 542 *~ 0.4;
#X obj 80 446 r freq;
#X obj 80 469 + 0;
#X floatatom 80 493 5 0 0 0 - - - 0;
#X obj 98 399 r span;
#X obj 98 422 * 1.1;
#X obj 112 196 hsl 500 30 0.05 100 0 0 empty empty span -2 -10 0 12 #c7c6ff #000000 #000000 0 1;
#X obj 108 272 s span;
#X obj 15 207 bng 19 250 50 0 empty empty empty 0 -10 0 12 #fcfcfc #000000 #000000;
#X floatatom 109 235 3 0 0 0 - - - 24;
#X obj 149 515 phasor~;
#X obj 149 541 *~ 0.4;
#X obj 149 445 r freq;
#X obj 149 468 + 0;
#X floatatom 149 492 5 0 0 0 - - - 0;
#X obj 167 398 r span;
#X obj 216 515 phasor~;
#X obj 216 541 *~ 0.4;
#X obj 216 445 r freq;
#X obj 216 468 + 0;
#X floatatom 216 492 5 0 0 0 - - - 0;
#X obj 234 398 r span;
#X obj 277 514 phasor~;
#X obj 277 540 *~ 0.4;
#X obj 277 444 r freq;
#X obj 277 467 + 0;
#X floatatom 277 491 5 0 0 0 - - - 0;
#X obj 295 397 r span;
#X obj 340 513 phasor~;
#X obj 340 539 *~ 0.4;
#X obj 340 443 r freq;
#X obj 340 466 + 0;
#X floatatom 340 490 5 0 0 0 - - - 0;
#X obj 358 396 r span;
#X obj 422 514 phasor~;
#X obj 422 540 *~ 0.4;
#X obj 422 444 r freq;
#X obj 422 467 + 0;
#X floatatom 422 491 5 0 0 0 - - - 0;
#X obj 440 397 r span;
#X obj 485 514 phasor~;
#X obj 485 540 *~ 0.4;
#X obj 485 444 r freq;
#X obj 485 467 + 0;
#X floatatom 485 491 5 0 0 0 - - - 0;
#X obj 503 397 r span;
#X obj 549 515 phasor~;
#X obj 549 541 *~ 0.4;
#X obj 549 445 r freq;
#X obj 549 468 + 0;
#X floatatom 549 492 5 0 0 0 - - - 0;
#X obj 567 398 r span;
#X obj 167 421 * 1.2;
#X obj 234 421 * 1.3;
#X obj 295 420 * 1.4;
#X obj 358 419 * 1.5;
#X obj 440 420 * 1.25;
#X obj 503 420 * 1.26;
#X obj 567 421 * 1.27;
#X obj 9 65 mtof;
#X msg 9 40 60;
#X floatatom 9 89 5 0 0 0 - - - 0;
#X obj 9 13 loadbang;
#X msg 48 40 25;
#X obj 183 36 netreceive -u -b;
#X obj 183 59 oscparse;
#X obj 183 83 list trim;
#X obj 402 107 print unexpected address;
#X obj 183 107 route note freq span ffreq fq;
#X text 282 4 DIY Swarmatron by Sound Simulator 2021 https://www.youtube.com/watch?v=0H5wQOUrlIY;
#X text 394 39 OSCified by Mace Ojala 2022;
#X obj 327 370 s ffreq;
#X obj 427 370 s fq;
#X obj 536 567 r fq;
#X obj 472 565 r ffreq;
#X obj 330 245 hsl 200 19 200 20000 1 0 empty empty filter\ freq -2 -10 0 12 #e3c6ff #000000 #000000 0 1;
#X obj 430 283 hsl 100 19 0.1 10 0 0 empty empty filter\ Q -2 -10 0 12 #e3c6ff #000000 #000000 0 1;
#X floatatom 327 333 5 0 0 0 - - - 24;
#X floatatom 427 334 3 0 0 0 - - - 24;
#X obj 327 308 clip 0 20000;
#X obj 427 308 clip 0.1 10;
#X text 509 308 filter safety;
#X obj 152 601 vsl 19 50 0 1 0 0 empty empty volume 0 -9 0 12 #c7c6ff #000000 #000000 0 1;
#X obj 222 619 *~ 1;
#X msg 297 268 2;
#X msg 93 13 \; pd dsp 1;
#X obj 81 598 loadbang;
#X msg 183 12 listen 10121;
#X msg 81 623 0.3;
#X msg 262 268 666;
#X connect 0 0 7 0;
#X connect 1 0 2 0;
#X connect 2 0 3 0;
#X connect 3 0 95 0;
#X connect 5 0 101 0;
#X connect 5 0 96 0;
#X connect 6 0 0 0;
#X connect 8 0 9 0;
#X connect 9 0 10 0;
#X connect 10 0 1 0;
#X connect 11 0 12 0;
#X connect 12 0 3 0;
#X connect 13 0 14 0;
#X connect 14 0 15 0;
#X connect 15 0 11 0;
#X connect 16 0 17 0;
#X connect 17 0 14 1;
#X connect 18 0 21 0;
#X connect 20 0 0 0;
#X connect 21 0 19 0;
#X connect 21 0 20 0;
#X connect 22 0 23 0;
#X connect 23 0 3 0;
#X connect 24 0 25 0;
#X connect 25 0 26 0;
#X connect 26 0 22 0;
#X connect 27 0 64 0;
#X connect 28 0 29 0;
#X connect 29 0 3 0;
#X connect 30 0 31 0;
#X connect 31 0 32 0;
#X connect 32 0 28 0;
#X connect 33 0 65 0;
#X connect 34 0 35 0;
#X connect 35 0 3 0;
#X connect 36 0 37 0;
#X connect 37 0 38 0;
#X connect 38 0 34 0;
#X connect 39 0 66 0;
#X connect 40 0 41 0;
#X connect 41 0 3 0;
#X connect 42 0 43 0;
#X connect 43 0 44 0;
#X connect 44 0 40 0;
#X connect 45 0 67 0;
#X connect 46 0 47 0;
#X connect 47 0 3 0;
#X connect 48 0 49 0;
#X connect 49 0 50 0;
#X connect 50 0 46 0;
#X connect 51 0 68 0;
#X connect 52 0 53 0;
#X connect 53 0 3 0;
#X connect 54 0 55 0;
#X connect 55 0 56 0;
#X connect 56 0 52 0;
#X connect 57 0 69 0;
#X connect 58 0 59 0;
#X connect 59 0 3 0;
#X connect 60 0 61 0;
#X connect 61 0 62 0;
#X connect 62 0 58 0;
#X connect 63 0 70 0;
#X connect 64 0 25 1;
#X connect 65 0 31 1;
#X connect 66 0 37 1;
#X connect 67 0 43 1;
#X connect 68 0 49 1;
#X connect 69 0 55 1;
#X connect 70 0 61 1;
#X connect 71 0 73 0;
#X connect 72 0 71 0;
#X connect 73 0 6 0;
#X connect 74 0 72 0;
#X connect 74 0 75 0;
#X connect 74 0 97 0;
#X connect 74 0 99 0;
#X connect 75 0 18 0;
#X connect 76 0 77 0;
#X connect 77 0 78 0;
#X connect 78 0 80 0;
#X connect 80 0 71 0;
#X connect 80 1 6 0;
#X connect 80 2 18 0;
#X connect 80 3 87 0;
#X connect 80 4 88 0;
#X connect 80 5 79 0;
#X connect 85 0 3 2;
#X connect 86 0 3 1;
#X connect 87 0 91 0;
#X connect 88 0 92 0;
#X connect 89 0 83 0;
#X connect 90 0 84 0;
#X connect 91 0 89 0;
#X connect 92 0 90 0;
#X connect 94 0 95 1;
#X connect 95 0 4 0;
#X connect 95 0 4 1;
#X connect 96 0 88 0;
#X connect 98 0 100 0;
#X connect 99 0 76 0;
#X connect 100 0 94 0;
#X connect 101 0 87 0;
